<mxfile host="app.diagrams.net" agent="Mozilla/5.0 (Windows NT 10.0; Win64; x64) AppleWebKit/537.36 (KHTML, like Gecko) Chrome/134.0.0.0 Safari/537.36 Edg/134.0.0.0" version="26.1.0">
  <diagram name="Page-1" id="SyTChcYU1aQ-5yH067eZ">
    <mxGraphModel dx="2066" dy="1149" grid="1" gridSize="10" guides="1" tooltips="1" connect="1" arrows="1" fold="1" page="1" pageScale="1" pageWidth="1169" pageHeight="827" math="0" shadow="0">
      <root>
        <mxCell id="0" />
        <mxCell id="1" parent="0" />
        <mxCell id="7TBdmQA0a9mORZIZbR4s-7" style="edgeStyle=orthogonalEdgeStyle;rounded=0;orthogonalLoop=1;jettySize=auto;html=1;entryX=1;entryY=0.5;entryDx=0;entryDy=0;exitX=0;exitY=0.75;exitDx=0;exitDy=0;" edge="1" parent="1" source="7TBdmQA0a9mORZIZbR4s-2" target="7TBdmQA0a9mORZIZbR4s-4">
          <mxGeometry relative="1" as="geometry" />
        </mxCell>
        <mxCell id="7TBdmQA0a9mORZIZbR4s-2" value="Server SlideÂ " style="swimlane;" vertex="1" parent="1">
          <mxGeometry x="480" y="240" width="200" height="200" as="geometry" />
        </mxCell>
        <mxCell id="7TBdmQA0a9mORZIZbR4s-5" style="edgeStyle=orthogonalEdgeStyle;rounded=0;orthogonalLoop=1;jettySize=auto;html=1;entryX=0;entryY=0.25;entryDx=0;entryDy=0;" edge="1" parent="1" source="7TBdmQA0a9mORZIZbR4s-3" target="7TBdmQA0a9mORZIZbR4s-2">
          <mxGeometry relative="1" as="geometry" />
        </mxCell>
        <mxCell id="7TBdmQA0a9mORZIZbR4s-3" value="Request" style="rounded=0;whiteSpace=wrap;html=1;" vertex="1" parent="1">
          <mxGeometry x="250" y="260" width="120" height="60" as="geometry" />
        </mxCell>
        <mxCell id="7TBdmQA0a9mORZIZbR4s-4" value="Response" style="rounded=0;whiteSpace=wrap;html=1;" vertex="1" parent="1">
          <mxGeometry x="250" y="360" width="120" height="60" as="geometry" />
        </mxCell>
      </root>
    </mxGraphModel>
  </diagram>
</mxfile>
